<svg width="16" height="16" viewBox="0 0 16 16" fill="none" xmlns="http://www.w3.org/2000/svg"><path d="M7.9987 8.66683C8.36689 8.66683 8.66536 8.36835 8.66536 8.00016C8.66536 7.63197 8.36689 7.3335 7.9987 7.3335C7.63051 7.3335 7.33203 7.63197 7.33203 8.00016C7.33203 8.36835 7.63051 8.66683 7.9987 8.66683Z" stroke="#8F9794" stroke-width="1.16667" stroke-linecap="round" stroke-linejoin="round"/><path d="M7.9987 3.99984C8.36689 3.99984 8.66536 3.70136 8.66536 3.33317C8.66536 2.96498 8.36689 2.6665 7.9987 2.6665C7.63051 2.6665 7.33203 2.96498 7.33203 3.33317C7.33203 3.70136 7.63051 3.99984 7.9987 3.99984Z" stroke="#8F9794" stroke-width="1.16667" stroke-linecap="round" stroke-linejoin="round"/><path d="M7.9987 13.3333C8.36689 13.3333 8.66536 13.0349 8.66536 12.6667C8.66536 12.2985 8.36689 12 7.9987 12C7.63051 12 7.33203 12.2985 7.33203 12.6667C7.33203 13.0349 7.63051 13.3333 7.9987 13.3333Z" stroke="#8F9794" stroke-width="1.16667" stroke-linecap="round" stroke-linejoin="round"/></svg>
